<svg width="18" height="18" viewBox="0 0 18 18" fill="none" xmlns="http://www.w3.org/2000/svg">
<path d="M9.9517 2.75149C10.1767 2.52652 10.4819 2.40015 10.8001 2.40015C11.1183 2.40015 11.4235 2.52652 11.6485 2.75149L17.0485 8.15149C17.2735 8.37652 17.3998 8.68169 17.3998 8.99989C17.3998 9.31809 17.2735 9.62326 17.0485 9.84829L11.6485 15.2483C11.4222 15.4669 11.1191 15.5878 10.8044 15.5851C10.4898 15.5824 10.1888 15.4562 9.96632 15.2337C9.74383 15.0112 9.61762 14.7102 9.61489 14.3956C9.61215 14.0809 9.73311 13.7778 9.9517 13.5515L13.2001 10.1999H1.8001C1.48184 10.1999 1.17661 10.0735 0.95157 9.84842C0.726526 9.62337 0.600098 9.31815 0.600098 8.99989C0.600098 8.68163 0.726526 8.37641 0.95157 8.15136C1.17661 7.92632 1.48184 7.79989 1.8001 7.79989H13.2001L9.9517 4.44829C9.72673 4.22326 9.60035 3.91809 9.60035 3.59989C9.60035 3.28169 9.72673 2.97652 9.9517 2.75149Z" fill="black"/>
</svg>
