<svg width="100" height="100" viewBox="0 0 100 100" fill="none" xmlns="http://www.w3.org/2000/svg">
  <!-- Connections: Layer 1 → Layer 2 -->
  <line x1="14" y1="20" x2="50" y2="20" stroke="white" stroke-width="1.5" stroke-opacity="0.45"/>
  <line x1="14" y1="20" x2="50" y2="50" stroke="white" stroke-width="1.5" stroke-opacity="0.45"/>
  <line x1="14" y1="20" x2="50" y2="80" stroke="white" stroke-width="1.5" stroke-opacity="0.45"/>
  <line x1="14" y1="50" x2="50" y2="20" stroke="white" stroke-width="1.5" stroke-opacity="0.45"/>
  <line x1="14" y1="50" x2="50" y2="50" stroke="white" stroke-width="1.5" stroke-opacity="0.45"/>
  <line x1="14" y1="50" x2="50" y2="80" stroke="white" stroke-width="1.5" stroke-opacity="0.45"/>
  <line x1="14" y1="80" x2="50" y2="20" stroke="white" stroke-width="1.5" stroke-opacity="0.45"/>
  <line x1="14" y1="80" x2="50" y2="50" stroke="white" stroke-width="1.5" stroke-opacity="0.45"/>
  <line x1="14" y1="80" x2="50" y2="80" stroke="white" stroke-width="1.5" stroke-opacity="0.45"/>
  <!-- Connections: Layer 2 → Layer 3 -->
  <line x1="50" y1="20" x2="86" y2="20" stroke="white" stroke-width="1.5" stroke-opacity="0.45"/>
  <line x1="50" y1="20" x2="86" y2="50" stroke="white" stroke-width="1.5" stroke-opacity="0.45"/>
  <line x1="50" y1="20" x2="86" y2="80" stroke="white" stroke-width="1.5" stroke-opacity="0.45"/>
  <line x1="50" y1="50" x2="86" y2="20" stroke="white" stroke-width="1.5" stroke-opacity="0.45"/>
  <line x1="50" y1="50" x2="86" y2="50" stroke="white" stroke-width="1.5" stroke-opacity="0.45"/>
  <line x1="50" y1="50" x2="86" y2="80" stroke="white" stroke-width="1.5" stroke-opacity="0.45"/>
  <line x1="50" y1="80" x2="86" y2="20" stroke="white" stroke-width="1.5" stroke-opacity="0.45"/>
  <line x1="50" y1="80" x2="86" y2="50" stroke="white" stroke-width="1.5" stroke-opacity="0.45"/>
  <line x1="50" y1="80" x2="86" y2="80" stroke="white" stroke-width="1.5" stroke-opacity="0.45"/>
  <!-- Nodes: Layer 1 -->
  <circle cx="14" cy="20" r="6" fill="white"/>
  <circle cx="14" cy="50" r="6" fill="white"/>
  <circle cx="14" cy="80" r="6" fill="white"/>
  <!-- Nodes: Layer 2 (slightly larger = hidden layer emphasis) -->
  <circle cx="50" cy="20" r="7" fill="white"/>
  <circle cx="50" cy="50" r="7" fill="white"/>
  <circle cx="50" cy="80" r="7" fill="white"/>
  <!-- Nodes: Layer 3 -->
  <circle cx="86" cy="20" r="6" fill="white"/>
  <circle cx="86" cy="50" r="6" fill="white"/>
  <circle cx="86" cy="80" r="6" fill="white"/>
</svg>
