<svg width="24" height="24" viewBox="0 0 24 24" fill="none" xmlns="http://www.w3.org/2000/svg">
  <!-- Connections: Layer 1 → Layer 2 -->
  <line x1="3" y1="5" x2="12" y2="5" stroke="white" stroke-width="0.6" stroke-opacity="0.55"/>
  <line x1="3" y1="5" x2="12" y2="12" stroke="white" stroke-width="0.6" stroke-opacity="0.55"/>
  <line x1="3" y1="5" x2="12" y2="19" stroke="white" stroke-width="0.6" stroke-opacity="0.55"/>
  <line x1="3" y1="12" x2="12" y2="5" stroke="white" stroke-width="0.6" stroke-opacity="0.55"/>
  <line x1="3" y1="12" x2="12" y2="12" stroke="white" stroke-width="0.6" stroke-opacity="0.55"/>
  <line x1="3" y1="12" x2="12" y2="19" stroke="white" stroke-width="0.6" stroke-opacity="0.55"/>
  <line x1="3" y1="19" x2="12" y2="5" stroke="white" stroke-width="0.6" stroke-opacity="0.55"/>
  <line x1="3" y1="19" x2="12" y2="12" stroke="white" stroke-width="0.6" stroke-opacity="0.55"/>
  <line x1="3" y1="19" x2="12" y2="19" stroke="white" stroke-width="0.6" stroke-opacity="0.55"/>
  <!-- Connections: Layer 2 → Layer 3 -->
  <line x1="12" y1="5" x2="21" y2="5" stroke="white" stroke-width="0.6" stroke-opacity="0.55"/>
  <line x1="12" y1="5" x2="21" y2="12" stroke="white" stroke-width="0.6" stroke-opacity="0.55"/>
  <line x1="12" y1="5" x2="21" y2="19" stroke="white" stroke-width="0.6" stroke-opacity="0.55"/>
  <line x1="12" y1="12" x2="21" y2="5" stroke="white" stroke-width="0.6" stroke-opacity="0.55"/>
  <line x1="12" y1="12" x2="21" y2="12" stroke="white" stroke-width="0.6" stroke-opacity="0.55"/>
  <line x1="12" y1="12" x2="21" y2="19" stroke="white" stroke-width="0.6" stroke-opacity="0.55"/>
  <line x1="12" y1="19" x2="21" y2="5" stroke="white" stroke-width="0.6" stroke-opacity="0.55"/>
  <line x1="12" y1="19" x2="21" y2="12" stroke="white" stroke-width="0.6" stroke-opacity="0.55"/>
  <line x1="12" y1="19" x2="21" y2="19" stroke="white" stroke-width="0.6" stroke-opacity="0.55"/>
  <!-- Nodes: Layer 1 -->
  <circle cx="3" cy="5" r="1.6" fill="white"/>
  <circle cx="3" cy="12" r="1.6" fill="white"/>
  <circle cx="3" cy="19" r="1.6" fill="white"/>
  <!-- Nodes: Layer 2 -->
  <circle cx="12" cy="5" r="1.8" fill="white"/>
  <circle cx="12" cy="12" r="1.8" fill="white"/>
  <circle cx="12" cy="19" r="1.8" fill="white"/>
  <!-- Nodes: Layer 3 -->
  <circle cx="21" cy="5" r="1.6" fill="white"/>
  <circle cx="21" cy="12" r="1.6" fill="white"/>
  <circle cx="21" cy="19" r="1.6" fill="white"/>
</svg>
