<svg width="100" height="100" viewBox="0 0 100 100" fill="none" xmlns="http://www.w3.org/2000/svg">
<path d="M8.33333 8.33337H45.8333V45.8334H8.33333V8.33337ZM16.6667 16.6667V37.5H37.5V16.6667H16.6667ZM72.9167 16.6667C70.154 16.6667 67.5045 17.7642 65.551 19.7177C63.5975 21.6712 62.5 24.3207 62.5 27.0834C62.5 29.846 63.5975 32.4956 65.551 34.4491C67.5045 36.4026 70.154 37.5 72.9167 37.5C75.6793 37.5 78.3289 36.4026 80.2824 34.4491C82.2359 32.4956 83.3333 29.846 83.3333 27.0834C83.3333 24.3207 82.2359 21.6712 80.2824 19.7177C78.3289 17.7642 75.6793 16.6667 72.9167 16.6667ZM54.1667 27.0834C54.1667 24.6211 54.6516 22.1829 55.5939 19.9081C56.5362 17.6332 57.9173 15.5662 59.6584 13.8251C61.3995 12.084 63.4665 10.7029 65.7414 9.76063C68.0162 8.81836 70.4544 8.33337 72.9167 8.33337C75.379 8.33337 77.8171 8.81836 80.092 9.76063C82.3668 10.7029 84.4338 12.084 86.1749 13.8251C87.916 15.5662 89.2971 17.6332 90.2394 19.9081C91.1817 22.1829 91.6667 24.6211 91.6667 27.0834C91.6667 32.0562 89.6912 36.8253 86.1749 40.3416C82.6586 43.8579 77.8895 45.8334 72.9167 45.8334C67.9439 45.8334 63.1747 43.8579 59.6584 40.3416C56.1421 36.8253 54.1667 32.0562 54.1667 27.0834ZM8.33333 54.1667H45.8333V91.6667H8.33333V54.1667ZM16.6667 62.5V83.3334H37.5V62.5H16.6667ZM54.1667 54.1667H91.6667V91.6667H54.1667V54.1667ZM62.5 62.5V83.3334H83.3333V62.5H62.5Z" fill="white"/>
</svg>
