<svg width="20" height="20" viewBox="0 0 20 20" fill="none" xmlns="http://www.w3.org/2000/svg">
<path d="M0 1.19209e-07H9V9H0V1.19209e-07ZM2 2V7H7V2H2ZM15.5 2C14.837 2 14.2011 2.26339 13.7322 2.73223C13.2634 3.20107 13 3.83696 13 4.5C13 5.16304 13.2634 5.79893 13.7322 6.26777C14.2011 6.73661 14.837 7 15.5 7C16.163 7 16.7989 6.73661 17.2678 6.26777C17.7366 5.79893 18 5.16304 18 4.5C18 3.83696 17.7366 3.20107 17.2678 2.73223C16.7989 2.26339 16.163 2 15.5 2ZM11 4.5C11 3.90905 11.1164 3.32389 11.3425 2.77792C11.5687 2.23196 11.9002 1.73588 12.318 1.31802C12.7359 0.900156 13.232 0.568688 13.7779 0.342542C14.3239 0.116396 14.9091 0 15.5 0C16.0909 0 16.6761 0.116396 17.2221 0.342542C17.768 0.568688 18.2641 0.900156 18.682 1.31802C19.0998 1.73588 19.4313 2.23196 19.6575 2.77792C19.8836 3.32389 20 3.90905 20 4.5C20 5.69347 19.5259 6.83807 18.682 7.68198C17.8381 8.52589 16.6935 9 15.5 9C14.3065 9 13.1619 8.52589 12.318 7.68198C11.4741 6.83807 11 5.69347 11 4.5ZM0 11H9V20H0V11ZM2 13V18H7V13H2ZM11 11H20V20H11V11ZM13 13V18H18V13H13Z" fill="white"/>
</svg>
