<svg width="100" height="100" viewBox="0 0 100 100" fill="none" xmlns="http://www.w3.org/2000/svg">
<g clip-path="url(#clip0_111_906)">
<path d="M50 33.3333L37.5 40.625V55.2083L50 62.5L62.5 55.2083V40.625L50 33.3333ZM56.3208 41.8333L49.9458 45.55L43.625 41.8625L50 38.1458L56.3208 41.8333ZM41.625 45.5083L47.8083 49.1167V56.4083L41.625 52.8042V45.5083ZM51.9333 56.5625V49.2L58.375 45.4417V52.8042L51.9333 56.5625ZM12.5 0L0 7.29167V21.875L12.5 29.1667L25 21.875V7.29167L12.5 0ZM18.8208 8.5L12.4458 12.2167L6.125 8.52917L12.5 4.8125L18.8208 8.5ZM4.125 12.1708L10.3083 15.7792V23.0708L4.125 19.475V12.1708ZM14.4333 23.225V15.8667L20.875 12.1083V19.4708L14.4333 23.225ZM12.5 70.8333L0 78.125V92.7083L12.5 100L25 92.7083V78.125L12.5 70.8333ZM18.8208 79.3333L12.4458 83.05L6.125 79.3625L12.5 75.6458L18.8208 79.3333ZM4.125 83.0083L10.3083 86.6167V93.9083L4.125 90.3083V83.0083ZM14.4333 94.0625V86.7L20.875 82.9417V90.3042L14.4333 94.0625ZM87.5 0L75 7.29167V21.875L87.5 29.1667L100 21.875V7.29167L87.5 0ZM93.8208 8.5L87.4458 12.2167L81.125 8.52917L87.5 4.8125L93.8208 8.5ZM79.125 12.175L85.3083 15.7833V23.075L79.125 19.4708V12.175ZM89.4333 23.2292V15.8667L95.875 12.1083V19.4708L89.4333 23.2292ZM87.5 70.8333L75 78.125V92.7083L87.5 100L100 92.7083V78.125L87.5 70.8333ZM93.8208 79.3333L87.4458 83.05L81.125 79.3625L87.5 75.6458L93.8208 79.3333ZM79.125 83.0083L85.3083 86.6167V93.9083L79.125 90.3042V83.0083ZM89.4333 94.0625V86.7L95.875 82.9417V90.3042L89.4333 94.0625ZM37.5 12.5H62.5V16.6667H37.5V12.5ZM37.5 83.3333H62.5V87.5H37.5V83.3333ZM14.5833 37.5V62.5H10.4167V37.5H14.5833ZM30.3875 36.7833L21.55 27.9458L24.4958 25L33.3333 33.8333L30.3875 36.7833ZM66.6667 34.5542L75.5042 25.7167L78.45 28.6625L69.6125 37.5L66.6667 34.5542ZM33.8667 61.9958L25.0292 70.8333L22.0833 67.8875L30.9208 59.05L33.8667 61.9958ZM70.3292 58.8708L79.1667 67.7083L76.2208 70.6542L67.3833 61.8167L70.3292 58.8708ZM89.5833 37.5V62.5H85.4167V37.5H89.5833Z" fill="white"/>
</g>
<defs>
<clipPath id="clip0_111_906">
<rect width="100" height="100" fill="white"/>
</clipPath>
</defs>
</svg>
