<svg width="87" height="68" viewBox="0 0 87 68" fill="none" xmlns="http://www.w3.org/2000/svg">
<g filter="url(#filter0_d_111_850)">
<path d="M52.6928 0.00129723C51.1319 0.0125472 49.5822 0.0884855 47.9453 0.527236C46.1621 1.01128 44.4701 1.78366 42.9362 2.8138C40.7819 1.54817 38.695 0.507547 36.6953 0.26286C34.2119 -0.0437029 31.9056 0.122235 29.2253 0.178485C26.0472 0.243173 23.9744 1.86598 20.6106 3.16536C17.2497 4.45911 12.9212 5.71349 6.8125 5.71349H4V32.7838L5.58344 33.5741L10.7669 36.125L29.2253 56.69L29.3125 56.7772C31.4219 58.8641 34.2681 59.3816 36.7825 59.2382C39.2997 59.0975 41.6622 58.3607 43.5494 57.2188C47.7034 54.7129 59.0181 46.8463 59.0181 46.8463L59.2825 46.6691L59.4597 46.4947C60.7984 45.1644 61.4706 43.5416 61.9206 41.8372L72.7291 36.3866L80.815 33.6641L82.75 33.0454V5.71349H79.9375C75.2098 5.74581 70.5217 4.84948 66.1394 3.07536C62.7756 1.76192 60.7338 0.155985 57.5219 0.0884851C55.8063 0.0547351 54.2509 -0.00995277 52.6928 0.00129723ZM52.7772 5.6263C54.0428 5.61505 55.5053 5.68255 57.3503 5.71349C57.6456 5.72474 60.3484 6.87786 64.1172 8.35161C67.3037 9.60317 71.7306 10.7141 77.125 11.0741V29.0038L70.6197 31.2032H70.4453L70.2681 31.2875L61.7463 35.5963C61.2939 34.2911 60.5756 33.094 59.6369 32.0807L59.4597 31.8163L47.5066 17.1407L45.7487 14.9413L43.5494 16.6991L35.9922 22.8529C33.4553 24.6107 31.3994 24.1044 29.3125 23.1172C28.7078 22.8304 28.7416 22.7432 28.2578 22.4141L41.0912 11.7772L41.2656 11.6029C45.0766 7.82286 47.4194 6.51505 49.4388 5.97786C50.4513 5.70224 51.5144 5.63755 52.7772 5.6263ZM33.1825 5.71349C34.1209 5.67812 35.0606 5.70725 35.995 5.80067C36.7319 5.88786 37.5672 6.51505 38.2816 6.76817C37.9947 7.03255 37.7866 7.18442 37.4884 7.4713L37.3141 7.64848L21.9325 20.3891L19.5588 22.3241L21.6681 24.5207C21.6681 24.5207 23.7016 26.72 26.8544 28.2135C30.0072 29.7069 34.8756 30.5535 39.2463 27.5104L39.4234 27.3332L44.8713 22.8529L55.2437 35.5963L55.3309 35.7735L55.4181 35.8579C57.2744 37.6944 57.2322 40.5829 55.4181 42.4532C55.3956 42.4729 55.4406 42.5179 55.4181 42.5375C55.3956 42.5516 55.0244 42.771 54.9794 42.8047L51.2866 37.7929L46.7162 41.1341L50.3219 45.966C48.8594 46.956 48.2012 47.4735 46.6291 48.5169L42.8519 43.4179L38.2787 46.7591L41.8844 51.591C41.5638 51.7879 40.9056 52.2294 40.6525 52.3841C39.7637 52.9213 38.0481 53.526 36.5209 53.6132C35.0837 53.6919 33.9841 53.3601 33.4469 52.91L33.3597 52.8229L14.5497 31.9935L14.1981 31.5519L9.625 29.2682V11.0741C14.9969 10.7225 19.4575 9.65661 22.6328 8.4388C26.3903 6.9988 29.0734 5.81192 29.3997 5.80067L33.1825 5.71349Z" fill="white"/>
</g>
<defs>
<filter id="filter0_d_111_850" x="0" y="0" width="86.75" height="67.2605" filterUnits="userSpaceOnUse" color-interpolation-filters="sRGB">
<feFlood flood-opacity="0" result="BackgroundImageFix"/>
<feColorMatrix in="SourceAlpha" type="matrix" values="0 0 0 0 0 0 0 0 0 0 0 0 0 0 0 0 0 0 127 0" result="hardAlpha"/>
<feOffset dy="4"/>
<feGaussianBlur stdDeviation="2"/>
<feComposite in2="hardAlpha" operator="out"/>
<feColorMatrix type="matrix" values="0 0 0 0 0 0 0 0 0 0 0 0 0 0 0 0 0 0 0.25 0"/>
<feBlend mode="normal" in2="BackgroundImageFix" result="effect1_dropShadow_111_850"/>
<feBlend mode="normal" in="SourceGraphic" in2="effect1_dropShadow_111_850" result="shape"/>
</filter>
</defs>
</svg>
