<svg width="95" height="95" viewBox="0 0 95 95" fill="none" xmlns="http://www.w3.org/2000/svg">
<g clip-path="url(#clip0_111_956)">
<path d="M84.6094 12.4688C83.5886 11.8084 82.4213 11.4089 81.21 11.3054C79.9987 11.2019 78.7805 11.3975 77.6625 11.875L41.0281 26.3032C40.1608 26.6561 39.2333 26.8376 38.2969 26.8375H14.8437C12.8753 26.8375 10.9876 27.6195 9.59569 29.0113C8.20382 30.4032 7.42187 32.291 7.42187 34.2594V34.8531H0V52.6656H7.42187V53.4375C7.46838 55.3749 8.27081 57.2172 9.65768 58.5708C11.0445 59.9244 12.9058 60.6818 14.8437 60.6813L23.75 79.5625C24.3531 80.8339 25.3025 81.9095 26.4893 82.6657C27.6761 83.4219 29.0522 83.8281 30.4594 83.8375H34.2C36.1581 83.8218 38.0307 83.033 39.4097 81.6428C40.7888 80.2526 41.5626 78.3738 41.5625 76.4156V61.3937L77.6625 75.8219C78.5504 76.1752 79.4974 76.3566 80.4531 76.3562C81.9358 76.3323 83.3796 75.8785 84.6094 75.05C85.5859 74.3906 86.3915 73.5082 86.9593 72.4757C87.5272 71.4432 87.8411 70.2903 87.875 69.1125V18.5844C87.8695 17.3762 87.5692 16.1876 87.0001 15.1219C86.431 14.0561 85.6103 13.1454 84.6094 12.4688ZM34.1406 34.2594V53.4375H14.8437V34.2594H34.1406ZM34.1406 76.4156H30.4L23.0969 60.6813H34.1406V76.4156ZM43.7594 54.3281C43.0544 53.9679 42.3193 53.6699 41.5625 53.4375V33.8438C42.3121 33.6891 43.047 33.4706 43.7594 33.1907L80.4531 18.5844V68.9344L43.7594 54.3281ZM88.0531 36.3375V51.1813C90.0215 51.1813 91.9093 50.3993 93.3012 49.0074C94.693 47.6156 95.475 45.7278 95.475 43.7594C95.475 41.791 94.693 39.9032 93.3012 38.5113C91.9093 37.1195 90.0215 36.3375 88.0531 36.3375Z" fill="white"/>
</g>
<defs>
<clipPath id="clip0_111_956">
<rect width="95" height="95" fill="white"/>
</clipPath>
</defs>
</svg>
