<svg width="100" height="100" viewBox="0 0 100 100" fill="none" xmlns="http://www.w3.org/2000/svg">
<path d="M45.8333 8.33337C27.425 8.33337 12.5 23.1042 12.5 41.3292C12.5 47.55 14.2375 53.3709 17.2625 58.3334M60.4167 45.8334V54.1667M72.9167 45.8334V54.1667M60.4167 12.5V20.8334M72.9167 12.5V20.8334M54.1667 27.0834H45.8333M54.1667 39.5834H45.8333M87.5 27.0834H79.1667M87.5 39.5834H79.1667M58.3333 79.1667L57.7917 81.8625C57.2083 84.8084 56.9125 86.2792 56.25 87.4459C55.2291 89.244 53.5762 90.5984 51.6125 91.2459C50.3417 91.6667 48.8333 91.6667 45.8333 91.6667C42.8333 91.6667 41.325 91.6667 40.0542 91.25C38.0897 90.6016 36.4367 89.2456 35.4167 87.4459C34.7542 86.2792 34.4583 84.8084 33.875 81.8625L33.3333 79.1667M70.8333 20.8334H62.5C58.5708 20.8334 56.6083 20.8334 55.3875 22.0542C54.1667 23.275 54.1667 25.2375 54.1667 29.1667V37.5C54.1667 41.4292 54.1667 43.3917 55.3875 44.6125C56.6083 45.8334 58.5708 45.8334 62.5 45.8334H70.8333C74.7625 45.8334 76.725 45.8334 77.9458 44.6125C79.1667 43.3917 79.1667 41.4292 79.1667 37.5V29.1667C79.1667 25.2375 79.1667 23.275 77.9458 22.0542C76.725 20.8334 74.7625 20.8334 70.8333 20.8334ZM26.5958 71.2417C26.2125 70.0917 26.0208 69.5125 26.0417 69.0459C26.0652 68.5634 26.2281 68.098 26.5106 67.7061C26.7931 67.3142 27.183 67.0125 27.6333 66.8375C28.0667 66.6667 28.675 66.6667 29.8833 66.6667H61.7833C62.9958 66.6667 63.6 66.6667 64.0333 66.8334C64.4843 67.0086 64.8747 67.3109 65.1572 67.7036C65.4397 68.0964 65.6022 68.5626 65.625 69.0459C65.6458 69.5125 65.4542 70.0875 65.0708 71.2417C64.3625 73.3709 64.0083 74.4375 63.4625 75.3C62.3208 77.1026 60.5312 78.3985 58.4625 78.9209C57.4708 79.1667 56.3542 79.1667 54.1167 79.1667H37.55C35.3125 79.1667 34.1917 79.1667 33.2042 78.9167C31.1361 78.3954 29.3466 77.101 28.2042 75.3C27.6583 74.4375 27.3042 73.3709 26.5958 71.2417Z" stroke="white" stroke-width="5.5" stroke-linecap="round" stroke-linejoin="round"/>
</svg>
