<svg width="35" height="43" viewBox="0 0 35 43" fill="none" xmlns="http://www.w3.org/2000/svg">
<g clip-path="url(#clip0_99_273)">
<g clip-path="url(#clip1_99_273)">
<path d="M30.625 2H4.375C1.96219 2 0 3.96219 0 6.375V32.625C0 35.0378 1.96219 37 4.375 37H30.625C33.0378 37 35 35.0378 35 32.625V6.375C35 3.96219 33.0378 2 30.625 2Z" fill="#1976D2"/>
<path d="M29.5312 19.5H24.0625V15.125C24.0625 13.9175 25.0425 14.0312 26.25 14.0312H28.4375V8.5625H24.0625C22.322 8.5625 20.6528 9.2539 19.4221 10.4846C18.1914 11.7153 17.5 13.3845 17.5 15.125V19.5H13.125V24.9688H17.5V37H24.0625V24.9688H27.3438L29.5312 19.5Z" fill="#FAFAFA"/>
</g>
</g>
<defs>
<clipPath id="clip0_99_273">
<rect width="35" height="35" fill="white" transform="translate(0 2)"/>
</clipPath>
<clipPath id="clip1_99_273">
<rect width="35" height="35" fill="white" transform="translate(0 2)"/>
</clipPath>
</defs>
</svg>
