<svg width="35" height="35" viewBox="0 0 35 35" fill="none" xmlns="http://www.w3.org/2000/svg">
<g clip-path="url(#clip0_99_275)">
<g clip-path="url(#clip1_99_275)">
<g clip-path="url(#clip2_99_275)">
<path d="M2.28329 2.43041C-0.459103 5.27708 0.102355 8.30312 0.102355 17.4943C0.102355 25.1272 -1.22983 32.7783 5.741 34.5801C7.91829 35.1394 27.2062 35.1394 29.3799 34.5772C32.2819 33.8283 34.6444 31.4746 34.9667 27.3701C35.0119 26.7977 35.0119 8.20103 34.9653 7.61697C34.6226 3.24489 31.9305 0.726347 28.3838 0.21593C27.5708 0.0978054 27.4082 0.0628053 23.2374 0.0555137C8.44475 0.0635345 5.20142 -0.594903 2.28329 2.43041Z" fill="url(#paint0_linear_99_275)"/>
<path d="M17.5491 4.61939C12.2699 4.61939 7.25544 4.1498 5.33992 9.06439C4.5495 11.0937 4.66398 13.7296 4.66398 17.5038C4.66398 20.8156 4.55825 23.9277 5.33992 25.9417C7.25033 30.8592 12.3056 30.3881 17.5462 30.3881C22.6022 30.3881 27.8158 30.9139 29.7539 25.9417C30.5465 23.8927 30.4298 21.2954 30.4298 17.5038C30.4298 12.4703 30.7076 9.22116 28.2664 6.78137C25.7945 4.30949 22.4513 4.61939 17.5433 4.61939H17.5491ZM16.3948 6.94178C27.4081 6.92428 28.8096 5.70001 28.0367 22.7064C27.7618 28.7205 23.1812 28.0606 17.5513 28.0606C7.2846 28.0606 6.98929 27.7668 6.98929 17.4979C6.98929 7.11022 7.80377 6.94689 16.3948 6.93887V6.94178ZM24.4273 9.08043C24.2243 9.08043 24.0233 9.12041 23.8357 9.1981C23.6482 9.27578 23.4778 9.38965 23.3342 9.53319C23.1907 9.67674 23.0768 9.84715 22.9991 10.0347C22.9215 10.2222 22.8815 10.4233 22.8815 10.6263C22.8815 10.8293 22.9215 11.0303 22.9991 11.2178C23.0768 11.4054 23.1907 11.5758 23.3342 11.7193C23.4778 11.8629 23.6482 11.9767 23.8357 12.0544C24.0233 12.1321 24.2243 12.1721 24.4273 12.1721C24.8373 12.1721 25.2305 12.0092 25.5204 11.7193C25.8103 11.4294 25.9731 11.0362 25.9731 10.6263C25.9731 10.2163 25.8103 9.82309 25.5204 9.53319C25.2305 9.24329 24.8373 9.08043 24.4273 9.08043ZM17.5491 10.8873C15.7943 10.8873 14.1114 11.5844 12.8705 12.8252C11.6297 14.066 10.9326 15.749 10.9326 17.5038C10.9327 18.3726 11.1039 19.2328 11.4365 20.0354C11.7691 20.8381 12.2564 21.5673 12.8708 22.1816C13.4852 22.7958 14.2146 23.2831 15.0173 23.6154C15.82 23.9478 16.6803 24.1189 17.5491 24.1188C18.4178 24.1189 19.278 23.9478 20.0806 23.6154C20.8833 23.283 21.6125 22.7958 22.2268 22.1815C22.8411 21.5672 23.3283 20.8379 23.6607 20.0353C23.9931 19.2327 24.1642 18.3725 24.1641 17.5038C24.1641 13.8506 21.2037 10.8873 17.5491 10.8873ZM17.5491 13.209C23.2278 13.209 23.2351 21.7986 17.5491 21.7986C11.8725 21.7986 11.8638 13.209 17.5491 13.209Z" fill="white"/>
</g>
</g>
</g>
<defs>
<linearGradient id="paint0_linear_99_275" x1="2.35038" y1="32.72" x2="34.7801" y2="4.64634" gradientUnits="userSpaceOnUse">
<stop stop-color="#FFDD55"/>
<stop offset="0.5" stop-color="#FF543E"/>
<stop offset="1" stop-color="#C837AB"/>
</linearGradient>
<clipPath id="clip0_99_275">
<rect width="35" height="35" fill="white"/>
</clipPath>
<clipPath id="clip1_99_275">
<rect width="35" height="35" fill="white"/>
</clipPath>
<clipPath id="clip2_99_275">
<rect width="35" height="35" fill="white"/>
</clipPath>
</defs>
</svg>
