<svg width="35" height="35" viewBox="0 0 35 35" fill="none" xmlns="http://www.w3.org/2000/svg">
<g clip-path="url(#clip0_99_271)">
<g clip-path="url(#clip1_99_271)">
<g clip-path="url(#clip2_99_271)">
<path d="M30.2276 0H4.7724C3.50668 0 2.2928 0.502805 1.3978 1.3978C0.502805 2.2928 0 3.50668 0 4.7724L0 30.2276C0 31.4933 0.502805 32.7072 1.3978 33.6022C2.2928 34.4972 3.50668 35 4.7724 35H30.2276C31.4933 35 32.7072 34.4972 33.6022 33.6022C34.4972 32.7072 35 31.4933 35 30.2276V4.7724C35 3.50668 34.4972 2.2928 33.6022 1.3978C32.7072 0.502805 31.4933 0 30.2276 0Z" fill="#0077B5"/>
<path d="M12.6074 9.54479C12.6075 9.93648 12.5303 10.3243 12.3805 10.6862C12.2307 11.0481 12.011 11.377 11.7341 11.654C11.4571 11.931 11.1284 12.1507 10.7665 12.3006C10.4046 12.4506 10.0168 12.5278 9.62511 12.5278C9.23342 12.5279 8.84556 12.4508 8.48367 12.3009C8.12178 12.1511 7.79295 11.9314 7.51595 11.6545C7.23895 11.3775 7.01921 11.0488 6.86927 10.6869C6.71933 10.3251 6.64214 9.93721 6.64209 9.54552C6.64209 8.75437 6.95637 7.99563 7.5158 7.43621C8.07522 6.87678 8.83396 6.5625 9.62511 6.5625C10.4163 6.5625 11.175 6.87678 11.7344 7.43621C12.2938 7.99563 12.6081 8.75437 12.6081 9.54552L12.6074 9.54479ZM11.9322 14.5177V27.6959C11.9328 27.7932 11.9141 27.8896 11.8773 27.9796C11.8404 28.0696 11.7862 28.1514 11.7176 28.2203C11.649 28.2892 11.5674 28.3439 11.4776 28.3812C11.3878 28.4185 11.2915 28.4376 11.1943 28.4375H8.05011C7.95289 28.4376 7.85661 28.4185 7.76677 28.3814C7.67693 28.3442 7.59531 28.2897 7.52656 28.2209C7.45782 28.1522 7.40331 28.0706 7.36615 27.9807C7.32899 27.8909 7.30991 27.7946 7.31001 27.6974V14.5177C7.3102 14.3215 7.38826 14.1335 7.52704 13.9948C7.66581 13.8562 7.85395 13.7783 8.05011 13.7783H11.1943C11.3901 13.7789 11.5776 13.857 11.7159 13.9956C11.8542 14.1342 11.932 14.3219 11.9322 14.5177ZM28.3662 21.3777V27.7579C28.3663 27.8473 28.3489 27.9358 28.3147 28.0184C28.2806 28.101 28.2305 28.176 28.1673 28.2391C28.1041 28.3023 28.029 28.3523 27.9464 28.3864C27.8637 28.4204 27.7752 28.4378 27.6858 28.4375H24.3054C24.2161 28.4378 24.1275 28.4204 24.0449 28.3864C23.9623 28.3523 23.8872 28.3023 23.824 28.2391C23.7608 28.176 23.7106 28.101 23.6765 28.0184C23.6424 27.9358 23.6249 27.8473 23.6251 27.7579V21.5746C23.6251 20.6522 23.8956 17.5343 21.213 17.5343C19.1349 17.5343 18.712 19.6678 18.6281 20.6259V27.7572C18.6281 27.936 18.5578 28.1076 18.4322 28.2349C18.3067 28.3622 18.1361 28.435 17.9573 28.4375H14.6928C14.6036 28.4375 14.5153 28.4199 14.433 28.3857C14.3506 28.3516 14.2758 28.3015 14.2128 28.2384C14.1498 28.1752 14.0999 28.1003 14.0659 28.0179C14.0319 27.9354 14.0145 27.8471 14.0147 27.7579V14.4594C14.0149 14.2794 14.0863 14.1069 14.2134 13.9796C14.3405 13.8522 14.5129 13.7804 14.6928 13.7798H17.958C18.1383 13.7798 18.3113 13.8514 18.4388 13.9788C18.5664 14.1062 18.6381 14.2791 18.6383 14.4594V15.6093C19.4098 14.4514 20.5539 13.5589 22.9937 13.5589C28.399 13.5589 28.3662 18.6061 28.3662 21.3777Z" fill="white"/>
</g>
</g>
</g>
<defs>
<clipPath id="clip0_99_271">
<rect width="35" height="35" fill="white"/>
</clipPath>
<clipPath id="clip1_99_271">
<rect width="35" height="35" fill="white"/>
</clipPath>
<clipPath id="clip2_99_271">
<rect width="35" height="35" fill="white"/>
</clipPath>
</defs>
</svg>
