<svg width="84" height="84" viewBox="0 0 84 84" fill="none" xmlns="http://www.w3.org/2000/svg">
<path d="M0.333328 0.333375H37.8333V37.8334H0.333328V0.333375ZM8.66666 8.66671V29.5H29.5V8.66671H8.66666ZM64.9167 8.66671C62.154 8.66671 59.5045 9.76418 57.551 11.7177C55.5975 13.6712 54.5 16.3207 54.5 19.0834C54.5 21.846 55.5975 24.4956 57.551 26.4491C59.5045 28.4026 62.154 29.5 64.9167 29.5C67.6793 29.5 70.3289 28.4026 72.2824 26.4491C74.2359 24.4956 75.3333 21.846 75.3333 19.0834C75.3333 16.3207 74.2359 13.6712 72.2824 11.7177C70.3289 9.76418 67.6793 8.66671 64.9167 8.66671ZM46.1667 19.0834C46.1667 16.6211 46.6516 14.1829 47.5939 11.9081C48.5362 9.63321 49.9173 7.56622 51.6584 5.82512C53.3995 4.08402 55.4665 2.70291 57.7414 1.76063C60.0162 0.818357 62.4544 0.333374 64.9167 0.333374C67.379 0.333374 69.8171 0.818357 72.092 1.76063C74.3668 2.70291 76.4338 4.08402 78.1749 5.82512C79.916 7.56622 81.2971 9.63321 82.2394 11.9081C83.1817 14.1829 83.6667 16.6211 83.6667 19.0834C83.6667 24.0562 81.6912 28.8253 78.1749 32.3416C74.6586 35.8579 69.8895 37.8334 64.9167 37.8334C59.9439 37.8334 55.1747 35.8579 51.6584 32.3416C48.1421 28.8253 46.1667 24.0562 46.1667 19.0834ZM0.333328 46.1667H37.8333V83.6667H0.333328V46.1667ZM8.66666 54.5V75.3334H29.5V54.5H8.66666ZM46.1667 46.1667H83.6667V83.6667H46.1667V46.1667ZM54.5 54.5V75.3334H75.3333V54.5H54.5Z" fill="white"/>
</svg>
