<svg width="90" height="90" viewBox="0 0 90 90" fill="none" xmlns="http://www.w3.org/2000/svg">
<path d="M20.07 23.22L22.5 33.57L20.07 43.875L29.115 49.455L34.65 58.5L45 56.07L55.35 58.5L60.885 49.455L69.93 43.875L67.5 33.57L69.93 23.22L60.93 17.64L55.35 8.59497L45 11.07L34.695 8.63997L29.07 17.64L20.07 23.22ZM45.045 51.75C40.2711 51.75 35.6927 49.8535 32.3171 46.4779C28.9414 43.1022 27.045 38.5239 27.045 33.75C27.045 28.9761 28.9414 24.3977 32.3171 21.022C35.6927 17.6464 40.2711 15.75 45.045 15.75C54.945 15.75 63 23.805 63 33.705C63 43.695 54.945 51.75 45.045 51.75ZM44.955 47.25C37.485 47.25 31.5 41.22 31.5 33.75C31.5 26.325 37.485 20.25 44.955 20.25C52.425 20.25 58.5 26.325 58.5 33.75C58.5 41.22 52.425 47.25 44.955 47.25ZM62.235 52.2L56.475 62.28L47.115 60.165L58.5 86.4L64.8 76.5H76.05L62.235 52.2ZM27.585 52.515L33.21 62.64L42.795 60.345L31.5 86.4L25.2 76.5H13.95L27.585 52.515Z" fill="white"/>
</svg>
