<svg width="100" height="100" viewBox="0 0 100 100" fill="none" xmlns="http://www.w3.org/2000/svg">
<path d="M16.6666 62.5C13.1944 62.5 10.243 61.2848 7.81246 58.8542C5.3819 56.4236 4.16663 53.4723 4.16663 50C4.16663 46.5278 5.3819 43.5764 7.81246 41.1459C10.243 38.7153 13.1944 37.5 16.6666 37.5V29.1667C16.6666 26.875 17.4833 24.9139 19.1166 23.2834C20.75 21.6528 22.7111 20.8362 25 20.8334H37.5C37.5 17.3612 38.7152 14.4098 41.1458 11.9792C43.5763 9.54865 46.5277 8.33337 50 8.33337C53.4722 8.33337 56.4236 9.54865 58.8541 11.9792C61.2847 14.4098 62.5 17.3612 62.5 20.8334H75C77.2916 20.8334 79.2541 21.65 80.8875 23.2834C82.5208 24.9167 83.3361 26.8778 83.3333 29.1667V37.5C86.8055 37.5 89.7569 38.7153 92.1875 41.1459C94.618 43.5764 95.8333 46.5278 95.8333 50C95.8333 53.4723 94.618 56.4236 92.1875 58.8542C89.7569 61.2848 86.8055 62.5 83.3333 62.5V79.1667C83.3333 81.4584 82.518 83.4209 80.8875 85.0542C79.2569 86.6875 77.2944 87.5028 75 87.5H25C22.7083 87.5 20.7472 86.6848 19.1166 85.0542C17.4861 83.4237 16.6694 81.4612 16.6666 79.1667V62.5ZM37.5 54.1667C39.2361 54.1667 40.7125 53.5598 41.9291 52.3459C43.1458 51.132 43.7527 49.6556 43.75 47.9167C43.7472 46.1778 43.1402 44.7028 41.9291 43.4917C40.718 42.2806 39.2416 41.6723 37.5 41.6667C35.7583 41.6612 34.2833 42.2695 33.075 43.4917C31.8666 44.7139 31.2583 46.1889 31.25 47.9167C31.2416 49.6445 31.85 51.1209 33.075 52.3459C34.3 53.5709 35.775 54.1778 37.5 54.1667ZM62.5 54.1667C64.2361 54.1667 65.7125 53.5598 66.9291 52.3459C68.1458 51.132 68.7527 49.6556 68.75 47.9167C68.7472 46.1778 68.1402 44.7028 66.9291 43.4917C65.718 42.2806 64.2416 41.6723 62.5 41.6667C60.7583 41.6612 59.2833 42.2695 58.075 43.4917C56.8666 44.7139 56.2583 46.1889 56.25 47.9167C56.2416 49.6445 56.85 51.1209 58.075 52.3459C59.3 53.5709 60.775 54.1778 62.5 54.1667ZM33.3333 70.8334H66.6666V62.5H33.3333V70.8334ZM25 79.1667H75V29.1667H25V79.1667Z" fill="white"/>
</svg>
