<svg width="62" height="80" viewBox="0 0 62 80" fill="none" xmlns="http://www.w3.org/2000/svg">
<path d="M22 75C15.0777 75 8.31078 72.9473 2.55506 69.1015C-3.20066 65.2556 -7.6867 59.7893 -10.3358 53.3939C-12.9848 46.9985 -13.678 39.9612 -12.3275 33.1719C-10.977 26.3825 -7.64356 20.1461 -2.74872 15.2513C2.14612 10.3564 8.38252 7.02301 15.1719 5.67253C21.9612 4.32205 28.9985 5.01516 35.3939 7.66423C41.7893 10.3133 47.2556 14.7993 51.1015 20.5551C54.9473 26.3108 57 33.0777 57 40C57 49.2826 53.3125 58.185 46.7487 64.7487C40.185 71.3125 31.2826 75 22 75ZM22 10C16.0666 10 10.2664 11.7595 5.33291 15.0559C0.399435 18.3524 -3.44574 23.0377 -5.71637 28.5195C-7.987 34.0013 -8.5811 40.0333 -7.42354 45.8527C-6.26599 51.6722 -3.40876 57.0176 0.786812 61.2132C4.98239 65.4088 10.3279 68.266 16.1473 69.4236C21.9667 70.5811 27.9987 69.987 33.4805 67.7164C38.9623 65.4458 43.6477 61.6006 46.9441 56.6671C50.2405 51.7336 52 45.9335 52 40C52 32.0435 48.8393 24.4129 43.2132 18.7868C37.5871 13.1607 29.9565 10 22 10Z" fill="white"/>
<path d="M33.475 55L19.5 41.025V17.5H24.5V38.95L37 51.475L33.475 55Z" fill="white"/>
</svg>
