<svg width="84" height="84" viewBox="0 0 84 84" fill="none" xmlns="http://www.w3.org/2000/svg">
<path d="M14.8958 0.309674C15.4263 0.564739 15.874 0.964441 16.1873 1.46275C16.5005 1.96107 16.6667 2.53773 16.6667 3.12634C16.6667 6.58467 17.9667 8.57634 19.5958 11.0013L19.7167 11.1763C21.1 13.2347 22.9167 15.9305 22.9167 19.793C22.9167 23.7347 20.9292 27.2097 17.9 29.2722C18.6972 29.9388 19.4 30.7625 20.0083 31.743C21.9917 34.9513 22.9167 39.8555 22.9167 46.8972C22.9167 54.0305 21.9583 62.5972 20.3958 69.4389C19.6208 72.8389 18.6583 75.9763 17.5125 78.3305C16.974 79.5032 16.2572 80.5855 15.3875 81.5388C14.5292 82.418 13.2083 83.3555 11.4583 83.3555C9.70833 83.3555 8.3875 82.418 7.53333 81.5388C6.66364 80.5855 5.94681 79.5032 5.40833 78.3305C4.25833 75.9722 3.29583 72.8388 2.52083 69.4347C0.894098 62.0297 0.0491898 54.4744 3.84517e-07 46.893C3.84517e-07 39.8513 0.925 34.9513 2.90833 31.743C3.47176 30.81 4.18393 29.9754 5.01667 29.2722C3.47066 28.2212 2.20527 26.808 1.33084 25.1558C0.456412 23.5035 -0.000483857 21.6624 3.84517e-07 19.793C3.84517e-07 18.2597 0 15.6222 1.59583 12.218C3.15833 8.88468 6.12917 5.05551 11.5875 0.684674C12.0475 0.316691 12.6022 0.0862358 13.1876 0.0198858C13.7729 -0.0464642 14.3651 0.0539933 14.8958 0.309674ZM6.25 19.7888C6.25 21.1702 6.79873 22.4991 7.77549 23.4759C8.75224 24.4526 10.077 25.0013 11.4583 25.0013C12.8397 25.0013 14.1644 24.4526 15.1412 23.4759C16.1179 22.4991 16.6667 21.1743 16.6667 19.793C16.6667 17.9638 15.8958 16.6972 14.4083 14.4847L14.3583 14.4097C13.4042 12.993 12.275 11.3138 11.475 9.15967C9.2125 11.4597 7.9625 13.368 7.25833 14.868C6.25 17.018 6.25 18.5513 6.25 19.7888ZM8.225 35.0222C7.19167 36.6972 6.25 40.1305 6.25 46.893C6.25 53.5638 7.15833 61.6638 8.6125 68.043C9.34583 71.2514 10.1792 73.8555 11.025 75.5889C11.1806 75.9083 11.325 76.1791 11.4583 76.4014C11.5917 76.1791 11.7361 75.9083 11.8917 75.5889C12.7375 73.8555 13.5708 71.2472 14.3042 68.043C15.7625 61.668 16.6667 53.568 16.6667 46.893C16.6667 40.1305 15.725 36.6972 14.6917 35.0222C14.3773 34.4604 13.907 34.0016 13.3375 33.7013C12.7467 33.4406 12.1034 33.3208 11.4583 33.3513C10.625 33.3513 10.0292 33.4805 9.57917 33.7013C9.0097 34.0016 8.53937 34.4604 8.225 35.0222ZM33.3333 53.8263C31.1264 53.454 28.9794 52.7869 26.95 51.843C27.0723 49.4798 27.1071 47.1129 27.0542 44.7472C28.9333 46.0097 31.0542 46.9388 33.3333 47.4555V35.418C33.3333 33.7604 33.9918 32.1707 35.1639 30.9986C36.336 29.8265 37.9257 29.168 39.5833 29.168H56.25C56.2498 25.6709 55.2716 22.2435 53.4259 19.2732C51.5802 16.3028 48.9405 13.9078 45.8052 12.3588C42.6699 10.8097 39.1638 10.1684 35.6832 10.5073C32.2025 10.8461 28.886 12.1517 26.1083 14.2763C25.275 11.9722 24.0875 10.2097 23.2625 8.98468L23.0958 8.73468C26.8394 6.0957 31.236 4.53587 35.8057 4.22546C40.3754 3.91505 44.9426 4.86599 49.0086 6.97447C53.0747 9.08296 56.4833 12.2679 58.8625 16.1818C61.2417 20.0956 62.5 24.5878 62.5 29.168H77.0833C78.7409 29.168 80.3306 29.8265 81.5027 30.9986C82.6749 32.1707 83.3333 33.7604 83.3333 35.418V72.918C83.3333 74.5756 82.6749 76.1653 81.5027 77.3374C80.3306 78.5095 78.7409 79.168 77.0833 79.168H39.5833C37.9257 79.168 36.336 78.5095 35.1639 77.3374C33.9918 76.1653 33.3333 74.5756 33.3333 72.918V53.8263ZM39.5833 54.0888V72.9222H77.0833V35.4222H61.7083C60.4124 40.4443 57.5866 44.939 53.6224 48.2835C49.6582 51.6281 44.7519 53.6569 39.5833 54.0888ZM55.1833 35.4222H39.5833V47.8097C43.0848 47.4191 46.4053 46.0499 49.1644 43.8589C51.9235 41.668 54.0095 38.7441 55.1833 35.4222Z" fill="white"/>
</svg>
