<svg width="24" height="24" viewBox="0 0 24 24" fill="none" xmlns="http://www.w3.org/2000/svg">
<path d="M4.28886 0.0891623C4.4416 0.162602 4.57049 0.277685 4.66069 0.421161C4.75089 0.564637 4.79874 0.730671 4.79872 0.900147C4.79872 1.89588 5.17302 2.46933 5.6421 3.16754L5.67689 3.21793C6.07518 3.81057 6.59824 4.58677 6.59824 5.69887C6.59824 6.83377 6.026 7.8343 5.15383 8.42814C5.38337 8.62009 5.58571 8.85723 5.76087 9.13955C6.33191 10.0633 6.59824 11.4753 6.59824 13.5028C6.59824 15.5566 6.32232 18.0232 5.87244 19.9931C5.6493 20.972 5.37217 21.8754 5.04226 22.5532C4.88722 22.8908 4.68083 23.2025 4.43042 23.4769C4.18329 23.7301 3.80299 24 3.29912 24C2.79526 24 2.41496 23.7301 2.16902 23.4769C1.91862 23.2025 1.71223 22.8908 1.55719 22.5532C1.22607 21.8742 0.948948 20.972 0.725807 19.9919C0.257432 17.8598 0.0141629 15.6845 1.10711e-07 13.5016C1.10711e-07 11.4741 0.266329 10.0633 0.837377 9.13955C0.999602 8.87092 1.20465 8.63061 1.44442 8.42814C0.999285 8.12556 0.634947 7.71866 0.38318 7.24293C0.131412 6.76721 -0.000139314 6.23711 1.10711e-07 5.69887C1.10711e-07 5.25739 0 4.49799 0.459478 3.51785C0.909358 2.55811 1.76473 1.4556 3.33631 0.197134C3.46877 0.0911828 3.62847 0.0248293 3.79701 0.00572559C3.96555 -0.0133781 4.13605 0.0155459 4.28886 0.0891623ZM1.79952 5.69767C1.79952 6.09539 1.95751 6.47802 2.23874 6.75925C2.51997 7.04048 2.9014 7.19847 3.29912 7.19847C3.69684 7.19847 4.07827 7.04048 4.3595 6.75925C4.64073 6.47802 4.79872 6.09659 4.79872 5.69887C4.79872 5.17221 4.57678 4.80751 4.1485 4.17048L4.1341 4.14888C3.85937 3.74099 3.53426 3.25752 3.30392 2.63728C2.65249 3.29951 2.29259 3.84896 2.08984 4.28085C1.79952 4.89988 1.79952 5.34137 1.79952 5.69767ZM2.36817 10.0837C2.07065 10.566 1.79952 11.5545 1.79952 13.5016C1.79952 15.4223 2.06105 17.7545 2.47974 19.5912C2.69088 20.5149 2.93082 21.2647 3.17436 21.7638C3.21914 21.8558 3.26073 21.9338 3.29912 21.9977C3.33751 21.9338 3.3791 21.8558 3.42389 21.7638C3.66742 21.2647 3.90736 20.5137 4.1185 19.5912C4.53839 17.7557 4.79872 15.4235 4.79872 13.5016C4.79872 11.5545 4.52759 10.566 4.23007 10.0837C4.13956 9.92195 4.00414 9.78986 3.84018 9.70341C3.67007 9.62834 3.48485 9.59384 3.29912 9.60263C3.05919 9.60263 2.88763 9.63982 2.75807 9.70341C2.5941 9.78986 2.45868 9.92195 2.36817 10.0837ZM9.59745 15.4979C8.96201 15.3906 8.34385 15.1986 7.75954 14.9268C7.79475 14.2464 7.80476 13.5649 7.78953 12.8838C8.33058 13.2473 8.94122 13.5148 9.59745 13.6636V10.1977C9.59745 9.72041 9.78704 9.2627 10.1245 8.92522C10.462 8.58774 10.9197 8.39815 11.397 8.39815H16.1957C16.1956 7.39125 15.914 6.40443 15.3826 5.54919C14.8511 4.69395 14.0911 4.00437 13.1884 3.55837C12.2857 3.11237 11.2762 2.92772 10.274 3.02529C9.27186 3.12285 8.31696 3.49875 7.5172 4.11049C7.27726 3.44707 6.93535 2.9396 6.69782 2.5869L6.64983 2.51492C7.72769 1.75509 8.99358 1.30598 10.3093 1.21661C11.625 1.12723 12.94 1.40103 14.1107 2.00811C15.2814 2.6152 16.2629 3.53223 16.9479 4.65911C17.6329 5.78598 17.9952 7.0794 17.9952 8.39815H22.1941C22.6714 8.39815 23.1291 8.58774 23.4665 8.92522C23.804 9.2627 23.9936 9.72041 23.9936 10.1977V20.9948C23.9936 21.4721 23.804 21.9298 23.4665 22.2673C23.1291 22.6047 22.6714 22.7943 22.1941 22.7943H11.397C10.9197 22.7943 10.462 22.6047 10.1245 22.2673C9.78704 21.9298 9.59745 21.4721 9.59745 20.9948V15.4979ZM11.397 15.5734V20.996H22.1941V10.1989H17.7673C17.3941 11.6449 16.5805 12.939 15.4391 13.902C14.2978 14.8649 12.8851 15.4491 11.397 15.5734ZM15.8886 10.1989H11.397V13.7655C12.4051 13.6531 13.3612 13.2588 14.1556 12.628C14.95 11.9972 15.5506 11.1553 15.8886 10.1989Z" fill="white"/>
</svg>
