<svg width="100" height="100" viewBox="0 0 100 100" fill="none" xmlns="http://www.w3.org/2000/svg">
<path d="M68.1666 58.3334C68.5 55.5834 68.75 52.8334 68.75 50C68.75 47.1667 68.5 44.4167 68.1666 41.6667H82.25C82.9166 44.3334 83.3333 47.125 83.3333 50C83.3333 52.875 82.9166 55.6667 82.25 58.3334M60.7917 81.5C63.2916 76.875 65.2083 71.875 66.5416 66.6667H78.8333C74.7965 73.6178 68.3921 78.8833 60.7917 81.5ZM59.75 58.3334H40.25C39.8333 55.5834 39.5833 52.8334 39.5833 50C39.5833 47.1667 39.8333 44.375 40.25 41.6667H59.75C60.125 44.375 60.4167 47.1667 60.4167 50C60.4167 52.8334 60.125 55.5834 59.75 58.3334ZM50 83.1667C46.5417 78.1667 43.75 72.625 42.0417 66.6667H57.9583C56.25 72.625 53.4583 78.1667 50 83.1667ZM33.3333 33.3334H21.1667C25.161 26.3627 31.5611 21.0885 39.1667 18.5C36.6667 23.125 34.7917 28.125 33.3333 33.3334ZM21.1667 66.6667H33.3333C34.7917 71.875 36.6667 76.875 39.1667 81.5C31.5761 78.8846 25.1845 73.6175 21.1667 66.6667ZM17.75 58.3334C17.0833 55.6667 16.6667 52.875 16.6667 50C16.6667 47.125 17.0833 44.3334 17.75 41.6667H31.8333C31.5 44.4167 31.25 47.1667 31.25 50C31.25 52.8334 31.5 55.5834 31.8333 58.3334M50 16.7917C53.4583 21.7917 56.25 27.375 57.9583 33.3334H42.0417C43.75 27.375 46.5417 21.7917 50 16.7917ZM78.8333 33.3334H66.5416C65.2356 28.1734 63.3046 23.1921 60.7917 18.5C68.4583 21.125 74.8333 26.4167 78.8333 33.3334ZM50 8.33337C26.9583 8.33337 8.33334 27.0834 8.33334 50C8.33334 61.0507 12.7232 71.6488 20.5372 79.4628C24.4063 83.3319 28.9996 86.401 34.0549 88.495C39.1101 90.5889 44.5282 91.6667 50 91.6667C61.0507 91.6667 71.6487 87.2768 79.4628 79.4628C87.2768 71.6488 91.6666 61.0507 91.6666 50C91.6666 44.5283 90.5889 39.1101 88.495 34.0549C86.401 28.9997 83.3319 24.4064 79.4628 20.5373C75.5937 16.6681 71.0004 13.599 65.9451 11.5051C60.8899 9.41111 55.4717 8.33337 50 8.33337Z" fill="white"/>
</svg>
