<svg width="84" height="84" viewBox="0 0 84 84" fill="none" xmlns="http://www.w3.org/2000/svg">
<path d="M60.1666 50.3334C60.5 47.5834 60.75 44.8334 60.75 42C60.75 39.1667 60.5 36.4167 60.1666 33.6667H74.25C74.9166 36.3334 75.3333 39.125 75.3333 42C75.3333 44.875 74.9166 47.6667 74.25 50.3334M52.7917 73.5C55.2916 68.875 57.2083 63.875 58.5416 58.6667H70.8333C66.7965 65.6178 60.3921 70.8833 52.7917 73.5ZM51.75 50.3334H32.25C31.8333 47.5834 31.5833 44.8334 31.5833 42C31.5833 39.1667 31.8333 36.375 32.25 33.6667H51.75C52.125 36.375 52.4167 39.1667 52.4167 42C52.4167 44.8334 52.125 47.5834 51.75 50.3334ZM42 75.1667C38.5417 70.1667 35.75 64.625 34.0417 58.6667H49.9583C48.25 64.625 45.4583 70.1667 42 75.1667ZM25.3333 25.3334H13.1667C17.161 18.3627 23.5611 13.0885 31.1667 10.5C28.6667 15.125 26.7917 20.125 25.3333 25.3334ZM13.1667 58.6667H25.3333C26.7917 63.875 28.6667 68.875 31.1667 73.5C23.5761 70.8846 17.1845 65.6175 13.1667 58.6667ZM9.75001 50.3334C9.08334 47.6667 8.66667 44.875 8.66667 42C8.66667 39.125 9.08334 36.3334 9.75001 33.6667H23.8333C23.5 36.4167 23.25 39.1667 23.25 42C23.25 44.8334 23.5 47.5834 23.8333 50.3334M42 8.7917C45.4583 13.7917 48.25 19.375 49.9583 25.3334H34.0417C35.75 19.375 38.5417 13.7917 42 8.7917ZM70.8333 25.3334H58.5416C57.2356 20.1734 55.3046 15.1921 52.7917 10.5C60.4583 13.125 66.8333 18.4167 70.8333 25.3334ZM42 0.333374C18.9583 0.333374 0.333344 19.0834 0.333344 42C0.333344 53.0507 4.72321 63.6488 12.5372 71.4628C16.4063 75.3319 20.9996 78.401 26.0549 80.495C31.1101 82.5889 36.5282 83.6667 42 83.6667C53.0507 83.6667 63.6487 79.2768 71.4628 71.4628C79.2768 63.6488 83.6666 53.0507 83.6666 42C83.6666 36.5283 82.5889 31.1101 80.495 26.0549C78.401 20.9997 75.3319 16.4064 71.4628 12.5373C67.5937 8.66815 63.0004 5.599 57.9451 3.50506C52.8899 1.41111 47.4717 0.333374 42 0.333374Z" fill="white"/>
</svg>
